<svg id="Layer_1" enable-background="new 0 0 128 128" height="512" viewBox="0 0 128 128" width="512" xmlns="http://www.w3.org/2000/svg"><g><g><path d="m7 51.5h114v69.5h-114z" fill="#fb9700"/><path d="m105.4 39.3 15.6 12.2-44.5 34.7h-25l-44.5-34.7 15.6-12.2z" fill="#f47400"/><path d="m22.6 63.7v-56.7h82.8v56.7l-28.9 22.5h-25z" fill="#edf5ff"/></g><g><path d="m65.4 31.8h-2.8c-7.4 0-13.5 6-13.5 13.5v2.7c0 7.4 6 13.5 13.5 13.5 1 0 1.8-.8 1.8-1.8s-.8-1.7-1.8-1.7c-5.5 0-10-4.5-10-10v-2.8c0-5.5 4.5-10 10-10h2.8c5.5 0 10 4.5 10 10v10.4c0 1.3-1 2.3-2.3 2.3s-2.3-1-2.3-2.3v-4-6.6c0-2.9-2.3-5.2-5.2-5.2h-3.2c-2.9 0-5.2 2.3-5.2 5.2v3.2c0 2.9 2.3 5.2 5.2 5.2h4.9v2.3c0 3.2 2.6 5.8 5.8 5.8s5.8-2.6 5.8-5.8v-10.5c-.1-7.4-6.1-13.4-13.5-13.4zm-4.7 16.4v-3.2c0-.9.8-1.7 1.7-1.7h3.2c.9 0 1.7.8 1.7 1.7v4.9h-4.9c-.9 0-1.7-.7-1.7-1.7z"/><path d="m40 119.2h-4.5c-1 0-1.8.8-1.8 1.8s.8 1.8 1.8 1.8h4.5c1 0 1.8-.8 1.8-1.8s-.9-1.8-1.8-1.8z"/><path d="m122.1 50.1-15-11.7v-9.2c0-1-.8-1.8-1.8-1.8s-1.8.8-1.8 1.8v33.6l-27.6 21.7h-23.8l-27.7-21.7v-54.1h79.2v11.2c0 1 .8 1.8 1.8 1.8s1.8-.8 1.8-1.8v-12.9c0-1-.8-1.8-1.8-1.8h-82.8c-1 0-1.8.8-1.8 1.8v31.4l-15 11.7c-.4.3-.7.8-.7 1.4v69.5c0 1 .8 1.8 1.8 1.8h19.2c1 0 1.8-.8 1.8-1.8s-.8-1.8-1.8-1.8h-14l40-31.3h23.7l40 31.3h-66.2c-1 0-1.8.8-1.8 1.8s.8 1.8 1.8 1.8h71.4c1 0 1.8-.8 1.8-1.8v-69.5c0-.5-.3-1.1-.7-1.4zm-2.8 5v62.3l-40-31.2zm-12.2-12.2 11 8.6-11 8.6zm-98.3 12.2 39.9 31.2-39.9 31.1zm12.1 5-11-8.6 11-8.6z"/></g></g></svg>